<svg xmlns="http://www.w3.org/2000/svg" viewBox="0 0 400 220" width="400" height="220" shape-rendering="crispEdges">
  <defs>
    <style>
      @keyframes blink { 0%,49%{opacity:1} 50%,100%{opacity:0} }
      @keyframes typing { 0%{transform:translateX(0)} 25%{transform:translateX(-2px)} 75%{transform:translateX(2px)} 100%{transform:translateX(0)} }
      @keyframes scroll { 0%{transform:translateY(0)} 100%{transform:translateY(-32px)} }
      @keyframes floatA { 0%,100%{transform:translateY(0)} 50%{transform:translateY(-3px)} }
      @keyframes floatB { 0%,100%{transform:translateY(-2px)} 50%{transform:translateY(1px)} }
      .cursor { animation: blink 1s step-end infinite; }
      .arms   { animation: typing 0.3s ease-in-out infinite; }
      .screen-code { animation: scroll 3s steps(4) infinite; }
      .tag1 { animation: floatA 2.5s ease-in-out infinite; }
      .tag2 { animation: floatB 3s ease-in-out infinite; }
      .tag3 { animation: floatA 3.5s ease-in-out infinite; }
    </style>
    <clipPath id="sc"><rect x="120" y="60" width="160" height="74"/></clipPath>
  </defs>
  <rect width="400" height="220" fill="#0D0D1A"/>
  <rect x="20" y="10" width="2" height="2" fill="#fff" opacity="0.6"><animate attributeName="opacity" values="0.6;0.1;0.6" dur="1.5s" repeatCount="indefinite"/></rect>
  <rect x="60" y="25" width="2" height="2" fill="#fff" opacity="0.4"><animate attributeName="opacity" values="0.4;0.8;0.4" dur="2s" repeatCount="indefinite"/></rect>
  <rect x="350" y="15" width="2" height="2" fill="#fff" opacity="0.5"><animate attributeName="opacity" values="0.5;0.1;0.5" dur="1.8s" repeatCount="indefinite"/></rect>
  <rect x="380" y="40" width="2" height="2" fill="#fff" opacity="0.7"><animate attributeName="opacity" values="0.7;0.2;0.7" dur="2.2s" repeatCount="indefinite"/></rect>
  <rect x="10" y="55" width="2" height="2" fill="#fff" opacity="0.5"><animate attributeName="opacity" values="0.5;0.9;0.5" dur="1.3s" repeatCount="indefinite"/></rect>
  <rect x="370" y="70" width="2" height="2" fill="#fff" opacity="0.4"><animate attributeName="opacity" values="0.4;0.8;0.4" dur="2.5s" repeatCount="indefinite"/></rect>
  <rect x="0" y="178" width="400" height="4" fill="#1A1A3A"/>
  <rect x="80" y="142" width="240" height="8" fill="#8B5E3C"/>
  <rect x="80" y="148" width="240" height="4" fill="#6B3E1C"/>
  <rect x="88" y="152" width="8" height="28" fill="#6B3E1C"/>
  <rect x="304" y="152" width="8" height="28" fill="#6B3E1C"/>
  <rect x="192" y="130" width="16" height="14" fill="#444"/>
  <rect x="184" y="140" width="32" height="4" fill="#555"/>
  <rect x="112" y="52" width="176" height="90" fill="#222"/>
  <rect x="116" y="56" width="168" height="82" fill="#111"/>
  <rect x="120" y="60" width="160" height="74" fill="#001100"/>
  <rect x="120" y="60" width="160" height="2" fill="#002200" opacity="0.5"/>
  <rect x="120" y="64" width="160" height="2" fill="#002200" opacity="0.5"/>
  <rect x="120" y="68" width="160" height="2" fill="#002200" opacity="0.5"/>
  <rect x="120" y="72" width="160" height="2" fill="#002200" opacity="0.5"/>
  <rect x="120" y="76" width="160" height="2" fill="#002200" opacity="0.5"/>
  <rect x="120" y="80" width="160" height="2" fill="#002200" opacity="0.5"/>
  <rect x="120" y="84" width="160" height="2" fill="#002200" opacity="0.5"/>
  <rect x="120" y="88" width="160" height="2" fill="#002200" opacity="0.5"/>
  <rect x="120" y="92" width="160" height="2" fill="#002200" opacity="0.5"/>
  <rect x="120" y="96" width="160" height="2" fill="#002200" opacity="0.5"/>
  <rect x="120" y="100" width="160" height="2" fill="#002200" opacity="0.5"/>
  <rect x="120" y="104" width="160" height="2" fill="#002200" opacity="0.5"/>
  <rect x="120" y="108" width="160" height="2" fill="#002200" opacity="0.5"/>
  <rect x="120" y="112" width="160" height="2" fill="#002200" opacity="0.5"/>
  <rect x="120" y="116" width="160" height="2" fill="#002200" opacity="0.5"/>
  <rect x="120" y="120" width="160" height="2" fill="#002200" opacity="0.5"/>
  <rect x="120" y="124" width="160" height="2" fill="#002200" opacity="0.5"/>
  <rect x="120" y="128" width="160" height="2" fill="#002200" opacity="0.5"/>
  <g clip-path="url(#sc)">
    <g class="screen-code">
      <rect x="124" y="64" width="4" height="4" fill="#00FF41"/>
      <rect x="130" y="64" width="20" height="4" fill="#00CC33"/>
      <rect x="152" y="64" width="8" height="4" fill="#FF6B6B"/>
      <rect x="162" y="64" width="24" height="4" fill="#00FF41"/>
      <rect x="130" y="72" width="12" height="4" fill="#FFD700"/>
      <rect x="144" y="72" width="4" height="4" fill="#00FF41"/>
      <rect x="150" y="72" width="28" height="4" fill="#74B9FF"/>
      <rect x="130" y="80" width="8" height="4" fill="#FF6B6B"/>
      <rect x="140" y="80" width="16" height="4" fill="#00FF41"/>
      <rect x="158" y="80" width="20" height="4" fill="#FFD700"/>
      <rect x="134" y="88" width="32" height="4" fill="#74B9FF"/>
      <rect x="134" y="96" width="20" height="4" fill="#00FF41"/>
      <rect x="156" y="96" width="12" height="4" fill="#FF6B6B"/>
      <rect x="124" y="104" width="4" height="4" fill="#00FF41"/>
      <rect x="130" y="104" width="16" height="4" fill="#00CC33"/>
      <rect x="148" y="104" width="24" height="4" fill="#FFD700"/>
      <rect x="130" y="112" width="36" height="4" fill="#74B9FF"/>
      <rect x="130" y="120" width="8" height="4" fill="#FF6B6B"/>
      <rect x="140" y="120" width="20" height="4" fill="#00FF41"/>
      <rect x="134" y="128" width="28" height="4" fill="#FFD700"/>
      <rect x="124" y="136" width="4" height="4" fill="#00FF41"/>
      <rect x="130" y="136" width="12" height="4" fill="#00CC33"/>
    </g>
  </g>
  <rect x="124" y="125" width="4" height="6" fill="#00FF41" class="cursor"/>
  <rect x="160" y="136" width="80" height="8" fill="#333" rx="1"/>
  <rect x="163" y="137" width="4" height="3" fill="#444"/>
  <rect x="169" y="137" width="4" height="3" fill="#444"/>
  <rect x="175" y="137" width="4" height="3" fill="#444"/>
  <rect x="181" y="137" width="4" height="3" fill="#444"/>
  <rect x="187" y="137" width="4" height="3" fill="#444"/>
  <rect x="193" y="137" width="4" height="3" fill="#444"/>
  <rect x="199" y="137" width="4" height="3" fill="#444"/>
  <rect x="205" y="137" width="4" height="3" fill="#444"/>
  <rect x="211" y="137" width="4" height="3" fill="#444"/>
  <rect x="217" y="137" width="4" height="3" fill="#444"/>
  <rect x="223" y="137" width="4" height="3" fill="#444"/>
  <rect x="165" y="141" width="6" height="3" fill="#3A3A3A"/>
  <rect x="173" y="141" width="4" height="3" fill="#3A3A3A"/>
  <rect x="179" y="141" width="4" height="3" fill="#3A3A3A"/>
  <rect x="185" y="141" width="4" height="3" fill="#3A3A3A"/>
  <rect x="191" y="141" width="18" height="3" fill="#3A3A3A"/>
  <rect x="211" y="141" width="4" height="3" fill="#3A3A3A"/>
  <rect x="217" y="141" width="6" height="3" fill="#3A3A3A"/>
  <rect x="308" y="96" width="32" height="52" fill="#444" rx="2"/>
  <rect x="312" y="100" width="24" height="44" fill="#555"/>
  <rect x="300" y="144" width="48" height="12" fill="#444" rx="2"/>
  <rect x="320" y="156" width="8" height="20" fill="#333"/>
  <rect x="304" y="174" width="40" height="4" fill="#2A2A2A" rx="2"/>
  <rect x="300" y="176" width="8" height="4" fill="#222" rx="2"/>
  <rect x="340" y="176" width="8" height="4" fill="#222" rx="2"/>
  <rect x="314" y="110" width="24" height="36" fill="#6C5CE7"/>
  <rect x="318" y="114" width="4" height="2" fill="#8B80F0"/>
  <rect x="330" y="114" width="4" height="2" fill="#8B80F0"/>
  <g class="arms">
    <rect x="298" y="112" width="16" height="8" fill="#6C5CE7"/>
    <rect x="290" y="118" width="10" height="8" fill="#FDDCB5"/>
    <rect x="338" y="112" width="16" height="8" fill="#6C5CE7"/>
    <rect x="352" y="118" width="10" height="8" fill="#FDDCB5"/>
  </g>
  <rect x="314" y="144" width="10" height="18" fill="#2D3436"/>
  <rect x="328" y="144" width="10" height="18" fill="#2D3436"/>
  <rect x="310" y="160" width="14" height="6" fill="#1A1A1A"/>
  <rect x="328" y="160" width="14" height="6" fill="#1A1A1A"/>
  <rect x="322" y="104" width="8" height="8" fill="#FDDCB5"/>
  <rect x="310" y="76" width="32" height="30" fill="#FDDCB5"/>
  <rect x="310" y="76" width="32" height="10" fill="#2D3436"/>
  <rect x="308" y="80" width="4" height="8" fill="#2D3436"/>
  <rect x="340" y="80" width="4" height="4" fill="#2D3436"/>
  <rect x="308" y="88" width="4" height="4" fill="#2D3436"/>
  <rect x="316" y="90" width="6" height="6" fill="#2D3436"/>
  <rect x="330" y="90" width="6" height="6" fill="#2D3436"/>
  <rect x="318" y="91" width="2" height="2" fill="white"/>
  <rect x="332" y="91" width="2" height="2" fill="white"/>
  <rect x="314" y="88" width="10" height="10" fill="none" stroke="#222" stroke-width="1"/>
  <rect x="328" y="88" width="10" height="10" fill="none" stroke="#222" stroke-width="1"/>
  <rect x="324" y="92" width="4" height="2" fill="#333"/>
  <rect x="318" y="100" width="2" height="2" fill="#C8956A"/>
  <rect x="320" y="102" width="12" height="2" fill="#C8956A"/>
  <rect x="332" y="100" width="2" height="2" fill="#C8956A"/>
  <rect x="92" y="126" width="18" height="16" fill="#E17055"/>
  <rect x="108" y="129" width="6" height="8" fill="none" stroke="#C0392B" stroke-width="2"/>
  <rect x="92" y="126" width="18" height="4" fill="#C0392B"/>
  <rect x="96" y="120" width="2" height="4" fill="#aaa"><animate attributeName="opacity" values="0.8;0;0.8" dur="1.5s" repeatCount="indefinite"/></rect>
  <rect x="102" y="118" width="2" height="4" fill="#aaa"><animate attributeName="opacity" values="0.4;0.9;0.4" dur="2s" repeatCount="indefinite"/></rect>
  <rect x="108" y="120" width="2" height="4" fill="#aaa"><animate attributeName="opacity" values="0.7;0.1;0.7" dur="1.8s" repeatCount="indefinite"/></rect>
  <g class="tag1">
    <rect x="18" y="95" width="36" height="16" fill="#F7DF1E" rx="1"/>
    <text x="36" y="107" text-anchor="middle" font-family="monospace" font-size="8" fill="#000" font-weight="bold">JS</text>
  </g>
  <g class="tag2">
    <rect x="18" y="118" width="36" height="16" fill="#3178C6" rx="1"/>
    <text x="36" y="130" text-anchor="middle" font-family="monospace" font-size="8" fill="#fff" font-weight="bold">TS</text>
  </g>
  <g class="tag3">
    <rect x="18" y="141" width="48" height="16" fill="#339933" rx="1"/>
    <text x="42" y="153" text-anchor="middle" font-family="monospace" font-size="8" fill="#fff" font-weight="bold">NODE</text>
  </g>
  <text x="200" y="200" text-anchor="middle" font-family="monospace" font-size="10" fill="#00FF41" letter-spacing="2">&gt; BACKEND_DEV.exe RUNNING...<animate attributeName="opacity" values="1;0.4;1" dur="2s" repeatCount="indefinite"/></text>
  <text x="200" y="214" text-anchor="middle" font-family="monospace" font-size="9" fill="#666" letter-spacing="1">Banking Academy of Vietnam</text>
</svg>
